<?xml version="1.0" encoding="UTF-8" standalone="no"?>
<!DOCTYPE svg PUBLIC "-//W3C//DTD SVG 1.1//EN" "http://www.w3.org/Graphics/SVG/1.1/DTD/svg11.dtd">
<svg width="100%" height="100%" viewBox="0 0 800 800" version="1.1" xmlns="http://www.w3.org/2000/svg" xmlns:xlink="http://www.w3.org/1999/xlink" xml:space="preserve" xmlns:serif="http://www.serif.com/" style="fill-rule:evenodd;clip-rule:evenodd;stroke-linejoin:round;stroke-miterlimit:2;">
    <g id="Layer_2" transform="matrix(16.6667,0,0,16.6667,0,0)">
        <g id="invisible_box">
            <rect x="0" y="0" width="48" height="48" style="fill:none;"/>
            <rect x="0" y="0" width="48" height="48" style="fill:none;"/>
            <rect x="0" y="0" width="48" height="48" style="fill:none;"/>
        </g>
        <g id="icons_Q2" transform="matrix(1.09091,0,0,1.09091,-2.27371,-2.18186)">
            <path d="M40,18C37.465,18.04 35.199,19.63 34.3,22L25.8,22C25.507,20.817 24.999,19.698 24.3,18.7L27.8,14.6C28.51,14.838 29.251,14.973 30,15C33.292,15 36,12.292 36,9C36,5.708 33.292,3 30,3C26.708,3 24,5.708 24,9C24.003,10.052 24.279,11.086 24.8,12L21.2,16.1C19.919,15.376 18.472,14.997 17,15L15.3,15.2L14.1,12.4C15.324,11.265 16.021,9.669 16.021,8C16.021,4.709 13.312,2 10.021,2C6.729,2 4.021,4.709 4.021,8C4.021,11.284 6.716,13.989 10,14L10.4,14L11.7,16.8C9.397,18.473 8.032,21.154 8.032,24C8.032,26.846 9.397,29.527 11.7,31.2L10.4,34L10,34C6.716,34.011 4.021,36.716 4.021,40C4.021,43.291 6.729,46 10.021,46C13.312,46 16.021,43.291 16.021,40C16.021,38.331 15.324,36.735 14.1,35.6L15.3,32.8L17,33C18.472,33.003 19.919,32.624 21.2,31.9L24.8,36C24.279,36.914 24.003,37.948 24,39C24,42.292 26.708,45 30,45C33.292,45 36,42.292 36,39C36,35.708 33.292,33 30,33C29.251,33.027 28.51,33.162 27.8,33.4L24.3,29.3C24.999,28.302 25.507,27.183 25.8,26L34.3,26C35.199,28.37 37.465,29.96 40,30C43.292,30 46,27.292 46,24C46,20.708 43.292,18 40,18Z" style="fill:rgb(255,153,0);fill-rule:nonzero;"/>
        </g>
        <g id="icons_Q21" serif:id="icons_Q2" transform="matrix(1.09091,0,0,1.09091,-2.88784,-2.18186)">
            <path d="M40,18C37.465,18.04 35.199,19.63 34.3,22L25.8,22C25.507,20.817 24.999,19.698 24.3,18.7L27.8,14.6C28.51,14.838 29.251,14.973 30,15C33.292,15 36,12.292 36,9C36,5.708 33.292,3 30,3C26.708,3 24,5.708 24,9C24.003,10.052 24.279,11.086 24.8,12L21.2,16.1C19.919,15.376 18.472,14.997 17,15L15.3,15.2L14.1,12.4C15.324,11.265 16.021,9.669 16.021,8C16.021,4.709 13.312,2 10.021,2C6.729,2 4.021,4.709 4.021,8C4.021,11.284 6.716,13.989 10,14L10.4,14L11.7,16.8C9.397,18.473 8.032,21.154 8.032,24C8.032,26.846 9.397,29.527 11.7,31.2L10.4,34L10,34C6.716,34.011 4.021,36.716 4.021,40C4.021,43.291 6.729,46 10.021,46C13.312,46 16.021,43.291 16.021,40C16.021,38.331 15.324,36.735 14.1,35.6L15.3,32.8L17,33C18.472,33.003 19.919,32.624 21.2,31.9L24.8,36C24.279,36.914 24.003,37.948 24,39C24,42.292 26.708,45 30,45C33.292,45 36,42.292 36,39C36,35.708 33.292,33 30,33C29.251,33.027 28.51,33.162 27.8,33.4L24.3,29.3C24.999,28.302 25.507,27.183 25.8,26L34.3,26C35.199,28.37 37.465,29.96 40,30C43.292,30 46,27.292 46,24C46,20.708 43.292,18 40,18Z" style="fill:rgb(255,153,0);fill-rule:nonzero;"/>
        </g>
    </g>
</svg>
