<?xml version="1.0" encoding="UTF-8" standalone="no"?>
<!DOCTYPE svg PUBLIC "-//W3C//DTD SVG 1.1//EN" "http://www.w3.org/Graphics/SVG/1.1/DTD/svg11.dtd">
<svg width="100%" height="100%" viewBox="0 0 800 800" version="1.1" xmlns="http://www.w3.org/2000/svg" xmlns:xlink="http://www.w3.org/1999/xlink" xml:space="preserve" xmlns:serif="http://www.serif.com/" style="fill-rule:evenodd;clip-rule:evenodd;stroke-linejoin:round;stroke-miterlimit:2;">
    <g id="Layer_2" transform="matrix(33.3333,0,0,33.3333,0,0)">
        <g transform="matrix(1.17073,0,0,1.17073,-2.2439,-2.34146)">
            <path d="M19,17.4C18.6,17.4 18.4,17.3 18.1,17.1C17.7,16.9 17.2,16.5 16.2,16.5C15.2,16.5 14.7,16.8 14.3,17.1C14,17.3 13.8,17.4 13.4,17.4C13,17.4 12.8,17.3 12.5,17.1C12.1,16.9 11.6,16.5 10.6,16.5C9.6,16.5 9.1,16.8 8.7,17.1C8.4,17.3 8.2,17.4 7.8,17.4C7.4,17.4 7.2,17.3 6.9,17.1C6.5,16.9 6,16.6 5,16.6C4.4,16.6 4,17 4,17.6C4,18.2 4.4,18.6 5,18.6C5.4,18.6 5.6,18.7 5.9,18.9C6.3,19.1 6.8,19.5 7.8,19.5C8.8,19.5 9.3,19.2 9.7,18.9C10,18.7 10.2,18.6 10.6,18.6C11,18.6 11.2,18.7 11.5,18.9C11.9,19.1 12.4,19.5 13.4,19.5C14.4,19.5 14.9,19.2 15.3,18.9C15.6,18.7 15.8,18.6 16.2,18.6C16.6,18.6 16.8,18.7 17.1,18.9C17.5,19.1 18,19.5 19,19.5C19.6,19.5 20,19.1 20,18.5C20,17.9 19.6,17.4 19,17.4Z" style="fill:rgb(255,153,0);fill-rule:nonzero;"/>
        </g>
        <g transform="matrix(1.17073,0,0,1.17073,-2.2439,-2.34146)">
            <path d="M19,20.4C18.6,20.4 18.4,20.3 18.1,20.1C17.7,19.9 17.2,19.5 16.2,19.5C15.2,19.5 14.7,19.8 14.3,20.1C14,20.3 13.8,20.4 13.4,20.4C13,20.4 12.8,20.3 12.5,20.1C12.1,19.9 11.6,19.5 10.6,19.5C9.6,19.5 9.1,19.8 8.7,20.1C8.4,20.3 8.2,20.4 7.8,20.4C7.4,20.4 7.2,20.3 6.9,20.1C6.5,19.9 6,19.6 5,19.6C4.4,19.6 4,20 4,20.6C4,21.2 4.4,21.6 5,21.6C5.4,21.6 5.6,21.7 5.9,21.9C6.3,22.1 6.8,22.5 7.8,22.5C8.8,22.5 9.3,22.2 9.7,21.9C10,21.7 10.2,21.6 10.6,21.6C11,21.6 11.2,21.7 11.5,21.9C11.9,22.1 12.4,22.5 13.4,22.5C14.4,22.5 14.9,22.2 15.3,21.9C15.6,21.7 15.8,21.6 16.2,21.6C16.6,21.6 16.8,21.7 17.1,21.9C17.5,22.1 18,22.5 19,22.5C19.6,22.5 20,22.1 20,21.5C20,20.9 19.6,20.4 19,20.4Z" style="fill:rgb(255,153,0);fill-rule:nonzero;"/>
        </g>
        <g transform="matrix(1.17073,0,0,1.17073,-2.2439,-2.34146)">
            <path d="M17,2C15.3,2 14,3.3 14,5L14,8L9,8L9,5C9,4.4 9.4,4 10,4C10.6,4 11,4.4 11,5L11,6C11,6.6 11.4,7 12,7C12.6,7 13,6.6 13,6L13,5C13,3.3 11.7,2 10,2C8.3,2 7,3.3 7,5L7,15C7,15.6 7.4,16 8,16C8.6,16 9,15.6 9,15L9,14L14,14L14,15C14,15.6 14.4,16 15,16C15.6,16 16,15.6 16,15L16,5C16,4.4 16.4,4 17,4C17.6,4 18,4.4 18,5L18,6C18,6.6 18.4,7 19,7C19.6,7 20,6.6 20,6L20,5C20,3.3 18.7,2 17,2ZM14,12L9,12L9,10L14,10L14,12Z" style="fill:rgb(255,153,0);fill-rule:nonzero;"/>
        </g>
    </g>
</svg>
