<?xml version="1.0" encoding="UTF-8" standalone="no"?>
<!DOCTYPE svg PUBLIC "-//W3C//DTD SVG 1.1//EN" "http://www.w3.org/Graphics/SVG/1.1/DTD/svg11.dtd">
<svg width="100%" height="100%" viewBox="0 0 800 800" version="1.1" xmlns="http://www.w3.org/2000/svg" xmlns:xlink="http://www.w3.org/1999/xlink" xml:space="preserve" xmlns:serif="http://www.serif.com/" style="fill-rule:evenodd;clip-rule:evenodd;stroke-linejoin:round;stroke-miterlimit:2;">
    <g transform="matrix(25,0,0,25,0,0)">
        <path d="M29.047,12.95C29.047,7.676 26.266,2.891 21.61,0.151C21.133,-0.13 20.52,0.03 20.241,0.506C19.962,0.982 20.12,1.595 20.596,1.875C24.635,4.251 27.046,8.391 27.046,12.949C27.046,20.523 21.548,26.021 13.974,26.021C12.28,26.021 10.637,25.704 9.089,25.079C8.578,24.871 7.993,25.119 7.787,25.631C7.581,26.143 7.827,26.727 8.339,26.933C10.127,27.656 12.023,28.022 13.974,28.022L13.992,28.022L13.992,29.991L11.088,29.991C10.511,29.991 10.043,30.438 10.043,30.989C10.043,31.54 10.511,31.987 11.088,31.987L18.99,31.987C19.567,31.987 20.035,31.54 20.035,30.989C20.035,30.438 19.567,29.991 18.99,29.991L15.978,29.991L15.978,27.904C23.659,27.012 29.047,21.001 29.047,12.952L29.047,12.95ZM24.98,13.04C24.98,6.957 20.05,1.996 13.968,1.996C7.884,1.996 2.953,6.957 2.953,13.04C2.953,19.123 7.884,24.022 13.968,24.022C20.051,24.022 24.98,19.123 24.98,13.04ZM4.953,13.04C4.953,8.07 8.997,3.996 13.967,3.996C18.937,3.996 22.979,8.07 22.979,13.04C22.979,18.01 18.936,22.022 13.967,22.022C8.996,22.022 4.953,18.01 4.953,13.04Z" style="fill:rgb(255,153,0);fill-rule:nonzero;"/>
    </g>
</svg>
