<?xml version="1.0" standalone="no"?>
<!DOCTYPE svg PUBLIC "-//W3C//DTD SVG 20010904//EN"
 "http://www.w3.org/TR/2001/REC-SVG-20010904/DTD/svg10.dtd">
<svg version="1.0" xmlns="http://www.w3.org/2000/svg"
 width="1218.000000pt" height="384.000000pt" viewBox="0 0 1218.000000 384.000000"
 preserveAspectRatio="xMidYMid meet">

<g transform="translate(0.000000,384.000000) scale(0.100000,-0.100000)"
fill="#000000" stroke="none">
<path d="M234 2937 c-3 -8 -4 -49 -2 -93 l3 -79 328 -3 327 -2 0 95 0 95 -325
0 c-263 0 -327 -3 -331 -13z"/>
<path d="M1740 2855 l0 -95 328 2 327 3 0 90 0 90 -327 3 -328 2 0 -95z"/>
<path d="M5820 2855 l0 -95 220 0 220 0 0 95 0 95 -220 0 -220 0 0 -95z"/>
<path d="M6470 2855 l0 -95 110 0 110 0 0 95 0 95 -110 0 -110 0 0 -95z"/>
<path d="M6900 2855 l0 -95 110 0 110 0 0 95 0 95 -110 0 -110 0 0 -95z"/>
<path d="M7330 2855 l0 -95 110 0 110 0 0 95 0 95 -110 0 -110 0 0 -95z"/>
<path d="M8190 2855 l0 -95 540 0 540 0 0 95 0 95 -540 0 -540 0 0 -95z"/>
<path d="M10120 2855 l0 -95 760 0 760 0 0 95 0 95 -760 0 -760 0 0 -95z"/>
<path d="M234 2697 c-2 -7 -3 -89 -2 -182 l3 -170 543 -3 542 -2 0 95 0 95
-105 0 -104 0 -3 88 -3 87 -433 3 c-347 2 -434 0 -438 -11z"/>
<path d="M1740 2525 l0 -185 328 2 327 3 0 180 0 180 -327 3 -328 2 0 -185z"/>
<path d="M5820 2525 l0 -185 220 0 220 0 0 185 0 185 -220 0 -220 0 0 -185z"/>
<path d="M6680 2620 l0 -90 -105 0 -105 0 0 -95 0 -95 540 0 540 0 0 95 0 95
-105 0 -105 0 0 90 0 90 -330 0 -330 0 0 -90z"/>
<path d="M7970 2620 l0 -90 -105 0 -105 0 0 -95 0 -95 970 0 970 0 0 95 0 95
-105 0 -105 0 0 90 0 90 -760 0 -760 0 0 -90z"/>
<path d="M9910 2525 l0 -185 540 0 540 0 0 90 0 90 323 2 322 3 3 93 3 92
-866 0 -865 0 0 -185z"/>
<path d="M234 2277 c-2 -7 -3 -89 -2 -182 l3 -170 328 -3 327 -2 0 90 0 90
100 0 99 0 3 -87 3 -88 650 0 650 0 0 180 0 180 -327 3 -328 2 0 -90 0 -90
-100 0 -99 0 -3 88 -3 87 -648 3 c-522 2 -649 0 -653 -11z"/>
<path d="M2817 2283 c-4 -3 -7 -44 -7 -90 l0 -83 -105 0 -105 0 0 -95 0 -95
220 0 220 0 0 90 0 90 100 0 99 0 3 -87 3 -88 220 0 220 0 0 90 0 90 -107 3
-108 3 0 89 0 90 -323 0 c-178 0 -327 -3 -330 -7z"/>
<path d="M3890 2105 l0 -185 540 0 540 0 0 95 0 95 -105 0 -105 0 0 90 0 90
-435 0 -435 0 0 -185z"/>
<path d="M5390 2200 l0 -90 -105 0 -105 0 0 -95 0 -95 540 0 540 0 0 185 0
185 -435 0 -435 0 0 -90z"/>
<path d="M6680 2200 l0 -90 -105 0 -105 0 0 -95 0 -95 110 0 110 0 0 90 0 90
105 0 105 0 0 -90 0 -90 110 0 110 0 0 90 0 90 105 0 105 0 0 -90 0 -90 110 0
110 0 0 95 0 95 -105 0 -105 0 0 90 0 90 -330 0 -330 0 0 -90z"/>
<path d="M7760 2105 l0 -185 325 0 325 0 0 185 0 185 -325 0 -325 0 0 -185z"/>
<path d="M9050 2105 l0 -185 325 0 325 0 0 185 0 185 -325 0 -325 0 0 -185z"/>
<path d="M10120 2195 l0 -95 110 0 110 0 0 -90 0 -90 540 0 540 0 0 95 0 95
-105 0 -105 0 0 90 0 90 -545 0 -545 0 0 -95z"/>
<path d="M234 1857 c-2 -7 -3 -89 -2 -182 l3 -170 328 -3 327 -2 0 185 0 185
-325 0 c-256 0 -327 -3 -331 -13z"/>
<path d="M1310 1775 l0 -95 105 0 104 0 3 -87 3 -88 435 0 435 0 0 180 0 180
-542 3 -543 2 0 -95z"/>
<path d="M2600 1685 l0 -185 435 0 435 0 0 90 0 89 108 3 107 3 0 90 0 90
-220 0 -220 0 -3 -87 -3 -88 -99 0 -100 0 0 90 0 90 -220 0 -220 0 0 -185z"/>
<path d="M3890 1685 l0 -185 220 0 220 0 0 185 0 185 -220 0 -220 0 0 -185z"/>
<path d="M4530 1775 l0 -95 220 0 220 0 0 95 0 95 -220 0 -220 0 0 -95z"/>
<path d="M5180 1685 l0 -185 220 0 220 0 0 185 0 185 -220 0 -220 0 0 -185z"/>
<path d="M5820 1685 l0 -185 220 0 220 0 0 185 0 185 -220 0 -220 0 0 -185z"/>
<path d="M7760 1685 l0 -185 970 0 970 0 0 185 0 185 -325 0 -325 0 0 -90 0
-90 -320 0 -320 0 0 90 0 90 -325 0 -325 0 0 -185z"/>
<path d="M10550 1775 l0 -95 110 0 110 0 0 -90 0 -90 435 0 435 0 0 185 0 185
-545 0 -545 0 0 -95z"/>
<path d="M234 1437 c-2 -7 -3 -89 -2 -182 l3 -170 328 -3 327 -2 0 185 0 185
-325 0 c-256 0 -327 -3 -331 -13z"/>
<path d="M1740 1265 l0 -185 328 2 327 3 0 180 0 180 -327 3 -328 2 0 -185z"/>
<path d="M2600 1355 l0 -95 105 0 104 0 3 -87 3 -88 435 0 435 0 0 90 0 90
-322 3 -323 2 0 90 0 90 -220 0 -220 0 0 -95z"/>
<path d="M3890 1265 l0 -185 220 0 220 0 0 185 0 185 -220 0 -220 0 0 -185z"/>
<path d="M5180 1355 l0 -95 105 0 105 0 0 -90 0 -90 435 0 435 0 0 185 0 185
-540 0 -540 0 0 -95z"/>
<path d="M7970 1355 l0 -95 110 0 110 0 0 -90 0 -90 540 0 540 0 0 90 0 89
108 3 107 3 3 93 3 92 -761 0 -760 0 0 -95z"/>
<path d="M9910 1265 l0 -185 755 0 755 0 0 90 0 89 108 3 107 3 3 93 3 92
-866 0 -865 0 0 -185z"/>
</g>
</svg>
